<?xml version="1.0" encoding="UTF-8"?>
<svg width="360px" height="500px" viewBox="0 0 360 500" version="1.1" xmlns="http://www.w3.org/2000/svg" xmlns:xlink="http://www.w3.org/1999/xlink">
    <title>Desktop HD 2@1x</title>
    <defs>
        <filter x="-33.1%" y="-39.0%" width="166.3%" height="178.0%" filterUnits="objectBoundingBox" id="filter-1">
            <feOffset dx="-23" dy="-13" in="SourceAlpha" result="shadowOffsetOuter1"></feOffset>
            <feGaussianBlur stdDeviation="17.5" in="shadowOffsetOuter1" result="shadowBlurOuter1"></feGaussianBlur>
            <feColorMatrix values="0 0 0 0 0   0 0 0 0 0   0 0 0 0 0  0 0 0 0.5 0" type="matrix" in="shadowBlurOuter1" result="shadowMatrixOuter1"></feColorMatrix>
            <feMerge>
                <feMergeNode in="shadowMatrixOuter1"></feMergeNode>
                <feMergeNode in="SourceGraphic"></feMergeNode>
            </feMerge>
        </filter>
        <ellipse id="path-2" cx="139" cy="143.5" rx="139" ry="143.5"></ellipse>
        <filter x="-4.5%" y="-4.4%" width="109.0%" height="108.7%" filterUnits="objectBoundingBox" id="filter-3">
            <feGaussianBlur stdDeviation="12" in="SourceAlpha" result="shadowBlurInner1"></feGaussianBlur>
            <feOffset dx="0" dy="1" in="shadowBlurInner1" result="shadowOffsetInner1"></feOffset>
            <feComposite in="shadowOffsetInner1" in2="SourceAlpha" operator="arithmetic" k2="-1" k3="1" result="shadowInnerInner1"></feComposite>
            <feColorMatrix values="0 0 0 0 0   0 0 0 0 0   0 0 0 0 0  0 0 0 0.5 0" type="matrix" in="shadowInnerInner1"></feColorMatrix>
        </filter>
        <ellipse id="path-4" cx="139" cy="143" rx="96" ry="98"></ellipse>
        <filter x="-14.3%" y="-14.0%" width="128.6%" height="128.1%" filterUnits="objectBoundingBox" id="filter-5">
            <feMorphology radius="5" operator="erode" in="SourceAlpha" result="shadowSpreadInner1"></feMorphology>
            <feGaussianBlur stdDeviation="14" in="shadowSpreadInner1" result="shadowBlurInner1"></feGaussianBlur>
            <feOffset dx="22" dy="22" in="shadowBlurInner1" result="shadowOffsetInner1"></feOffset>
            <feComposite in="shadowOffsetInner1" in2="SourceAlpha" operator="arithmetic" k2="-1" k3="1" result="shadowInnerInner1"></feComposite>
            <feColorMatrix values="0 0 0 0 0   0 0 0 0 0   0 0 0 0 0  0 0 0 0.5 0" type="matrix" in="shadowInnerInner1"></feColorMatrix>
        </filter>
    </defs>
    <g id="Desktop-HD-2" stroke="none" stroke-width="1" fill="none" fill-rule="evenodd">
        <rect fill="#2ECC71" x="0" y="0" width="360" height="500"></rect>
        <g id="Group-2" transform="translate(118.182013, 311.919200) rotate(40.000000) translate(-118.182013, -311.919200) translate(68.182013, 44.419200)" fill="#1D8348" fill-rule="nonzero" opacity="0.75">
            <g id="Baguette">
                <path d="M25.8064516,11.2173913 C26.8548387,10.173913 27.9193548,9.2173913 29.0322581,8.34782609 C29.1015985,18.2041232 28.5563814,28.0218255 27.4193548,37.3913043 C25.9516129,28.173913 26.0322581,13.0434783 25.8064516,11.2173913 Z" id="Path"></path>
                <path d="M50,33.0869565 C48.7580645,25.1304348 48.3870968,9.34782609 48.3870968,0.0434782609 C49.1290323,0.0434782609 50.8709677,0.0434782609 51.6129032,0.0434782609 C51.6129032,9.26086957 51.2419355,25.1304348 50,33.0869565 Z" id="Path"></path>
                <path d="M72.5806452,37.3913043 C71.4436186,28.0218255 70.8984015,18.2041232 70.9677419,8.34782609 C72.0645161,9.2173913 73.1290323,10.173913 74.1935484,11.2173913 C73.983871,13.0434783 74.016129,28.3478261 72.5806452,37.3913043 Z" id="Path"></path>
                <path d="M100,69.5652174 C100,91.3043478 77.6129032,95.6521739 50,95.6521739 C22.3870968,95.6521739 0,91.3043478 0,69.5652174 C0,52.7826087 9.03225806,29.2173913 22.6935484,14.3913043 C23,30 24.1935484,47.826087 27.4193548,47.826087 C32.0322581,47.826087 32.4677419,8.91304348 32.2580645,5.95652174 C36.4883029,3.07535439 40.8073158,1.24165173 45.1612903,0.47826087 C45.1612903,10.9565217 45.5645161,43.4782609 50,43.4782609 C54.4354839,43.4782609 54.8387097,10.9565217 54.8387097,0.47826087 C59.1926842,1.24165173 63.5116971,3.07535439 67.7419355,5.95652174 C67.5322581,8.2173913 67.7419355,47.826087 72.5806452,47.826087 C75.8064516,47.826087 77,30 77.3064516,14.3913043 C90.9677419,29.2173913 100,52.7826087 100,69.5652174 Z" id="Path"></path>
            </g>
            <g id="Cheese" transform="translate(0.000000, 144.000000)">
                <ellipse id="Oval" cx="16.1290323" cy="73.9130435" rx="4.83870968" ry="6.52173913"></ellipse>
                <ellipse id="Oval" cx="59.6774194" cy="80.4347826" rx="4.83870968" ry="6.52173913"></ellipse>
                <ellipse id="Oval" cx="38.7096774" cy="58.6956522" rx="3.22580645" ry="4.34782609"></ellipse>
                <path d="M77.1129032,45.6521739 C74.7419355,54.3478261 60.7419355,54.3478261 58.3709677,45.6521739 L0,45.6521739 L0,100 L27.4193548,100 C27.4193548,95.1975239 30.3078403,91.3043478 33.8709677,91.3043478 C37.4340952,91.3043478 40.3225806,95.1975239 40.3225806,100 L100,100 L100,45.6521739 L77.1129032,45.6521739 Z M16.1290323,84.7826087 C11.675123,84.7826087 8.06451613,79.9161386 8.06451613,73.9130435 C8.06451613,67.9099484 11.675123,63.0434783 16.1290323,63.0434783 C20.5829415,63.0434783 24.1935484,67.9099484 24.1935484,73.9130435 C24.1935484,76.7958314 23.3438964,79.5605479 21.8315063,81.5989868 C20.3191162,83.6374256 18.2678749,84.7826087 16.1290323,84.7826087 L16.1290323,84.7826087 Z M38.7096774,67.3913043 C35.14655,67.3913043 32.2580645,63.4981283 32.2580645,58.6956522 C32.2580645,53.8931761 35.14655,50 38.7096774,50 C42.2728048,50 45.1612903,53.8931761 45.1612903,58.6956522 C45.1612903,63.4981283 42.2728048,67.3913043 38.7096774,67.3913043 Z M59.6774194,91.3043478 C56.4156271,91.3043478 53.4750118,88.6560633 52.226778,84.5943851 C50.9785441,80.532707 51.6685099,75.8575132 53.9749453,72.7488393 C56.2813808,69.6401655 59.7500729,68.7102116 62.7635761,70.3926138 C65.7770792,72.075016 67.7419355,76.0384539 67.7419355,80.4347826 C67.7419355,86.4378777 64.1313286,91.3043478 59.6774194,91.3043478 L59.6774194,91.3043478 Z M83.8709677,78.2608696 C78.5262766,78.2608696 74.1935484,72.4211054 74.1935484,65.2173913 C74.1935484,58.0136772 78.5262766,52.173913 83.8709677,52.173913 C89.2156589,52.173913 93.5483871,58.0136772 93.5483871,65.2173913 C93.5483871,72.4211054 89.2156589,78.2608696 83.8709677,78.2608696 L83.8709677,78.2608696 Z" id="Shape"></path>
                <ellipse id="Oval" cx="83.8709677" cy="65.2173913" rx="6.4516129" ry="8.69565217"></ellipse>
                <path d="M62.2741935,45.6521739 C66.9516129,50.7608696 77.4354839,45.826087 73.2096774,41.3043478 C68.5322581,36.1956522 58.0645161,41.1304348 62.2741935,45.6521739 Z" id="Path"></path>
                <ellipse id="Oval" cx="74.1935484" cy="17.3913043" rx="3.22580645" ry="4.34782609"></ellipse>
                <path d="M77.1129032,41.3043478 L100,41.3043478 C99.0967742,24.7826087 87.9354839,8.08695652 74.1935484,0 L44.9032258,17.1521739 C45.7792631,21.3386165 44.2254264,25.7535198 41.2656867,27.4874837 C38.305947,29.2214476 34.8509061,27.7409959 33.1774194,24.0217391 L3.70967742,41.3043478 L58.3709677,41.3043478 C60.7419355,32.6086957 74.7419355,32.6086957 77.1129032,41.3043478 Z M74.1935484,8.69565217 C77.7566758,8.69565217 80.6451613,12.5888283 80.6451613,17.3913043 C80.6451613,22.1937804 77.7566758,26.0869565 74.1935484,26.0869565 C70.630421,26.0869565 67.7419355,22.1937804 67.7419355,17.3913043 C67.7419355,12.5888283 70.630421,8.69565217 74.1935484,8.69565217 Z" id="Shape"></path>
            </g>
            <g id="Coffee" transform="translate(0.000000, 290.000000)">
                <polygon id="Path" points="87.6086957 79.0322581 84.7826087 100 15.2173913 100 12.3913043 79.0322581"></polygon>
                <polygon id="Path" points="95.2173913 22.5806452 94.1304348 30.6451613 5.86956522 30.6451613 4.7826087 22.5806452"></polygon>
                <ellipse id="Oval" cx="50" cy="54.8387097" rx="17.3913043" ry="12.9032258"></ellipse>
                <path d="M4.13043478,33.8709677 L9.7826087,75.8064516 L90.2173913,75.8064516 L95.8695652,33.8709677 L4.13043478,33.8709677 Z M50,70.9677419 C37.9938098,70.9677419 28.2608696,63.7465282 28.2608696,54.8387097 C28.2608696,45.9308911 37.9938098,38.7096774 50,38.7096774 C62.0061902,38.7096774 71.7391304,45.9308911 71.7391304,54.8387097 C71.7391304,59.116395 69.4487643,63.2188775 65.3718865,66.2436578 C61.2950088,69.2684381 55.7655759,70.9677419 50,70.9677419 Z" id="Shape"></path>
                <path d="M8.69565217,9.67741935 L91.3043478,9.67741935 C96.1068239,9.67741935 100,12.5659048 100,16.1290323 L100,19.3548387 L0,19.3548387 L0,16.1290323 C0,12.5659048 3.89317609,9.67741935 8.69565217,9.67741935 Z" id="Path"></path>
                <polygon id="Path" points="87.673913 6.4516129 12.326087 6.4516129 15.2173913 0 84.7826087 0"></polygon>
            </g>
            <g id="Pizza" transform="translate(0.000000, 437.000000)">
                <path d="M99.4126984,35.5483871 C99.4342831,36.0256762 99.2637605,36.4913347 98.9403769,36.8381897 C98.6169934,37.1850446 98.168606,37.383217 97.6984127,37.3870968 L94.4444444,37.3870968 C93.8747744,23.6960909 86.7332388,11.1595619 75.3333333,3.83870968 C76.9206349,1.03225806 77.0952381,0.338709677 78.0793651,0.112903226 C78.5295011,0.0018202638 79.0049317,0.0960834566 79.3809524,0.370967742 C91.0128818,8.35573248 98.3964769,21.3219423 99.4126984,35.5483871 L99.4126984,35.5483871 Z" id="Path"></path>
                <path d="M73.7460317,6.5483871 C72.047619,9.53225806 72.8253968,8.32258065 56.2857143,37.3870968 L91.2063492,37.3870968 C90.67656,24.8314425 84.1617166,13.3248153 73.7460317,6.5483871 L73.7460317,6.5483871 Z M74.015873,33.9677419 C70.8687266,33.9677419 68.3174603,31.3753262 68.3174603,28.1774194 C68.3174603,24.9795125 70.8687266,22.3870968 74.015873,22.3870968 C77.1630194,22.3870968 79.7142857,24.9795125 79.7142857,28.1774194 C79.6968217,31.3627215 77.1506634,33.9355333 74.015873,33.9354839 L74.015873,33.9677419 Z M80.5873016,19.7741935 C79.6825397,19.7741935 79.7777778,19.6451613 75.3650794,15.1290323 C74.8257511,14.4890963 74.8620123,13.5351707 75.4483123,12.9394142 C76.0346124,12.3436576 76.9733964,12.3068116 77.6031746,12.8548387 L81.7142857,17.0322581 C82.1392046,17.4974822 82.256099,18.1726861 82.0129383,18.7573323 C81.7697777,19.3419784 81.2117753,19.7273578 80.5873016,19.7419355 L80.5873016,19.7741935 Z" id="Shape"></path>
                <path d="M67.7619048,10.6451613 L65.952381,13.8709677 C54.033018,7.47897669 39.7765058,7.47897669 27.8571429,13.8709677 L26.2698413,11 C26.0311526,10.5910725 25.9708221,10.0996178 26.1033359,9.64364009 C26.2358497,9.18766235 26.5492386,8.80834773 26.968254,8.59677419 C39.625658,2.39611166 54.374342,2.39611166 67.031746,8.59677419 C67.7607476,8.98414042 68.0776819,9.87326766 67.7619048,10.6451613 L67.7619048,10.6451613 Z" id="Path"></path>
                <path d="M29.4126984,16.6290323 L46.9206349,47.3870968 C51.6825397,38.9354839 51.8412698,38.6129032 64.3809524,16.5322581 C53.415501,10.7316272 40.3468921,10.7677944 29.4126984,16.6290323 Z M37.0634921,22.2580645 C36.3223673,22.261173 35.6777677,21.7427284 35.5105623,21.0090595 C35.3433569,20.2753907 35.698055,19.5217972 36.3650794,19.1935484 L42.9206349,15.8548387 C43.7052299,15.4539869 44.6610664,15.7753309 45.0555556,16.5725806 C45.4500447,17.3698304 45.1338014,18.3410836 44.3492063,18.7419355 C37.2857143,22.3387097 37.5079365,22.2580645 37.0634921,22.2580645 Z M47.7460317,32.2580645 C45.439987,32.2840916 43.3458596,30.895188 42.4411358,28.7396591 C41.5364121,26.5841303 41.9994877,24.087009 43.6142107,22.4138889 C45.2289337,20.7407689 47.6769087,20.2215603 49.8154822,21.0986167 C51.9540558,21.9756731 53.3615384,24.0760543 53.3809524,26.4193548 C53.3978756,27.9535621 52.813189,29.4315315 51.7559675,30.5269878 C50.6987461,31.622444 49.2559292,32.2453036 47.7460317,32.2580645 L47.7460317,32.2580645 Z" id="Shape"></path>
                <path d="M49.6666667,52.2258065 C62.3650794,74.6451613 58.4761905,67.7258065 67.1269841,83.0483871 C77.6088056,76.3262882 84.1806126,64.8088846 84.7142857,52.2258065 L49.6666667,52.2258065 Z M66.6349206,55.6774194 L73.2063492,55.6774194 C74.0829917,55.6774194 74.7936508,56.3995407 74.7936508,57.2903226 C74.7936508,58.1811044 74.0829917,58.9032258 73.2063492,58.9032258 L66.6349206,58.9032258 C65.8951352,58.7505831 65.3634881,58.0896392 65.3634881,57.3225806 C65.3634881,56.5555221 65.8951352,55.8945782 66.6349206,55.7419355 L66.6349206,55.6774194 Z M70.7301587,73.9193548 C67.5830123,73.9193548 65.031746,71.3269391 65.031746,68.1290323 C65.031746,64.9311254 67.5830123,62.3387097 70.7301587,62.3387097 C73.8773052,62.3387097 76.4285714,64.9311254 76.4285714,68.1290323 C76.4455339,69.675869 75.8526637,71.1652889 74.78216,72.2651787 C73.7116563,73.3650686 72.252537,73.983871 70.7301587,73.983871 L70.7301587,73.9193548 Z" id="Shape"></path>
                <path d="M92.8412698,54.1290323 C91.8274604,68.3605623 84.4438704,81.3327083 72.8095238,89.3225806 C72.4167184,89.5817106 71.9366816,89.6662622 71.4809624,89.5565879 C71.0252432,89.4469135 70.633522,89.1525627 70.3968254,88.7419355 L68.8095238,85.8548387 C80.2320238,78.5224695 87.3681641,65.9444047 87.8888889,52.2258065 C91.1904762,52.2258065 91.7301587,52.0483871 92.3968254,52.7903226 C92.7396639,53.1433827 92.9035733,53.6370934 92.8412698,54.1290323 Z" id="Path"></path>
                <path d="M76.5396825,28.1451613 C76.4353749,29.47849 75.3401136,30.506458 74.0238095,30.506458 C72.7075055,30.506458 71.6122441,29.47849 71.5079365,28.1451613 C71.6122441,26.8118326 72.7075055,25.7838646 74.0238095,25.7838646 C75.3401136,25.7838646 76.4353749,26.8118326 76.5396825,28.1451613 Z" id="Path"></path>
            </g>
        </g>
        <g id="Ramen" opacity="0.75" transform="translate(352.737862, 31.608562) rotate(40.000000) translate(-352.737862, -31.608562) translate(303.237862, -18.391438)" fill="#1D8348" fill-rule="nonzero">
            <path d="M25.984127,89.6935484 C33.6031746,92.3387097 38.8730159,91.9354839 47.4920635,91.9354839 C62.952381,91.9354839 76.4285714,83.4193548 82.6349206,70.9677419 L4.25396825,70.9677419 C8.818455,79.8491143 16.6156036,86.5682504 25.984127,89.6935484 Z" id="Path"></path>
            <path d="M2.88888889,67.8709677 C3.44444444,67.6451613 83.5555556,67.6774194 84,67.8709677 C84.4290679,66.7753169 84.7947704,65.6551286 85.0952381,64.516129 L1.79365079,64.516129 C2.09411853,65.6551286 2.45982102,66.7753169 2.88888889,67.8709677 L2.88888889,67.8709677 Z" id="Path"></path>
            <path d="M0.587301587,55.5322581 C0.589281418,57.4630729 0.759255325,59.3899293 1.0952381,61.2903226 C1.34920635,61.2903226 85.4444444,61.2903226 85.7936508,61.2903226 C86.1652445,59.1611903 86.3353329,57.0007922 86.3015873,54.8387097 C-6,54.8387097 0.587301587,54.4516129 0.587301587,55.5322581 Z" id="Path"></path>
            <path d="M39.3968254,95.1612903 C34.8491819,95.1625586 30.327382,94.4665519 25.984127,93.0967742 L25.984127,100 L60.9047619,100 L60.9047619,93.0967742 C53.1746032,95.5322581 48.031746,95.1612903 39.3968254,95.1612903 Z" id="Path"></path>
            <path d="M76.2222222,51.1612903 C76.4920635,51.6612903 76.3492063,51.6129032 76.5079365,51.6129032 C74.9206349,44.6612903 63.1111111,39.1612903 53.1746032,43.4516129 C54.0816564,44.2738019 54.8865504,45.2054225 55.5714286,46.2258065 C64.8095238,43.0645161 74.2857143,47.2096774 76.2222222,51.1612903 Z" id="Path"></path>
            <path d="M57.031746,49.1451613 C57.3164225,49.9432331 57.5133863,50.7708419 57.6190476,51.6129032 L72.6190476,51.6129032 C69.2222222,48.3870968 62,47.6451613 57.031746,49.1451613 Z" id="Path"></path>
            <path d="M21.2222222,32.2580645 C26.482077,32.2580645 30.7460317,27.9253363 30.7460317,22.5806452 L30.7460317,1.61290323 C30.7460317,0.722121371 30.0353726,0 29.1587302,0 C28.2820877,0 27.5714286,0.722121371 27.5714286,1.61290323 L27.5714286,3.12903226 L22.8095238,3.22580645 L22.8095238,8.06451613 L27.5714286,8.06451613 L27.5714286,11.2903226 L22.8095238,11.2903226 L22.8095238,16.1290323 L27.5714286,16.2258065 L27.5714286,22.5806452 C27.5714286,26.1437726 24.7287921,29.0322581 21.2222222,29.0322581 C20.3455798,29.0322581 19.6349206,29.7543794 19.6349206,30.6451613 C19.6349206,31.5359431 20.3455798,32.2580645 21.2222222,32.2580645 Z" id="Path"></path>
            <path d="M37.0952381,1.61290323 C37.0952381,0.722121371 36.384579,0 35.5079365,0 C34.631294,0 33.9206349,0.722121371 33.9206349,1.61290323 L33.9206349,39.7096774 C34.9546627,39.365633 36.0171907,39.1173099 37.0952381,38.9677419 L37.0952381,1.61290323 Z" id="Path"></path>
            <path d="M43.4444444,38.9516129 L43.4444444,1.61290323 C43.4444444,0.722121371 42.7337853,0 41.8571429,0 C40.9805004,0 40.2698413,0.722121371 40.2698413,1.61290323 L40.2698413,38.7096774 C41.3324513,38.7110528 42.39352,38.7919165 43.4444444,38.9516129 Z" id="Path"></path>
            <path d="M79.7936508,51.6129032 C80.1746032,51.6129032 78.5079365,41.8548387 67.0952381,38.3064516 C60.8057985,36.2705933 53.9870752,36.7671503 48.047619,39.6935484 C46.8888889,40.2419355 47.2857143,39.6935484 50.1428571,41.3064516 C61.7142857,34.983871 77.5396825,40.8064516 79.7936508,51.6129032 Z" id="Path"></path>
            <path d="M49.7936508,1.61290323 C49.7936508,0.722121371 49.0829917,0 48.2063492,0 C47.3297067,0 46.6190476,0.722121371 46.6190476,1.61290323 L46.6190476,36.8387097 C47.6475304,36.3183202 48.7079257,35.8657709 49.7936508,35.483871 L49.7936508,1.61290323 Z" id="Path"></path>
            <path d="M39.6984127,51.1290323 C39.8095238,51.8064516 38.6825397,51.6129032 47.2222222,51.6129032 C44.8683392,49.7155605 41.9856567,48.6206464 38.984127,48.483871 C39.3059903,49.3399968 39.5452099,50.2258812 39.6984127,51.1290323 Z" id="Path"></path>
            <path d="M40.4126984,45.4032258 C44.2857143,45.8870968 49.5396825,47.9516129 51.047619,51.6129032 L54.4126984,51.6129032 C53.5714286,46.9193548 48.2063492,41.9354839 40.2698413,41.9354839 C38.7914805,41.9276373 37.3185272,42.1174376 35.8888889,42.5 C38.6666667,46.3548387 36.047619,44.7096774 40.4126984,45.4032258 Z" id="Path"></path>
            <path d="M18.1428571,47.483871 C16.5937609,48.3626006 15.4771435,49.859841 15.0634921,51.6129032 L27.3809524,51.6129032 C26.9147859,49.6584681 25.5783814,48.0366937 23.7667921,47.226991 C21.9552028,46.4172883 19.875646,46.5122745 18.1428571,47.483871 L18.1428571,47.483871 Z" id="Path"></path>
            <path d="M6.79365079,51.6129032 L11.8095238,51.6129032 C13.3968254,40.6290323 29.0634921,40.9032258 30.6190476,51.6129032 L36.5555556,51.6129032 C35.6348191,47.6392461 33.6197682,44.0140725 30.7460317,41.1612903 C18.2539683,28.0806452 4.03174603,33.1290323 6.79365079,51.6129032 Z" id="Path"></path>
        </g>
        <path d="M284.380324,399.328093 C244.724074,359.042379 265.474074,329.867776 281.474074,346.121744 C287.724074,352.47095 296.864699,371.328093 304.395949,378.99476 C311.927199,386.661427 330.474074,395.899522 336.755324,402.280474 C352.724074,418.502696 324.083449,439.661427 284.380324,399.328093 Z" id="Path" fill-opacity="0.75" fill="#1D8348" fill-rule="nonzero" transform="translate(301.403386, 382.036048) rotate(40.000000) translate(-301.403386, -382.036048) "></path>
        <path d="M366.330883,416.744423 C364.674633,411.077756 360.784008,409.25236 357.377758,407.363471 C329.252758,391.903153 318.424633,380.934899 303.174633,352.315852 C301.268383,348.744423 299.534008,344.871407 293.940258,343.284106 C297.721508,340.839661 302.940258,340.855534 308.159008,346.157121 C314.409008,352.506328 323.221508,371.680931 330.768383,379.331725 C338.315258,386.982518 357.143383,395.919026 363.424633,402.299979 C368.643383,407.601566 368.659008,412.903153 366.330883,416.744423 Z" id="Path" fill-opacity="0.75" fill="#1D8348" fill-rule="nonzero" transform="translate(330.878448, 379.228426) rotate(40.000000) translate(-330.878448, -379.228426) "></path>
        <path d="M354.659354,403.596021 C345.643729,398.580148 331.706229,391.500782 319.378104,378.992846 C307.049979,366.484909 300.159354,352.373798 295.284354,343.27856 C290.034354,333.596021 275.518729,337.897608 276.190604,348.723005 C286.831229,347.64364 293.878104,360.738878 299.487479,369.849989 C310.424979,387.580148 311.034354,388.151576 328.503104,399.326179 C337.878104,405.310306 350.112479,412.024592 349.284354,422.992846 C359.737479,423.659513 364.378104,409.024592 354.659354,403.596021 Z M350.471854,408.945227 C347.971854,407.596021 347.346854,409.27856 343.268729,406.849989 C341.065604,405.532529 340.018729,402.723005 338.018729,401.421417 C336.456229,400.421417 333.331229,400.43729 330.971854,398.786497 C328.612479,397.135703 327.940604,394.373798 326.128104,392.9611 C324.315604,391.548402 321.549979,391.627767 319.331229,389.675386 C317.112479,387.723005 316.581229,384.786497 315.143729,383.326179 C313.706229,381.865862 310.706229,381.262687 308.893729,379.072211 C307.081229,376.881735 306.940604,373.818243 305.674979,372.167449 C304.409354,370.516656 301.534354,369.596021 299.971854,367.27856 C298.409354,364.9611 298.409354,361.754751 297.393729,360.135703 C296.096854,358.103957 293.315604,356.9611 292.049979,354.80237 C289.643729,350.707132 291.299979,350.040465 289.971854,347.469036 C289.594843,346.696639 289.893671,345.759751 290.644949,345.358746 C291.396226,344.957742 292.32523,345.239258 292.737479,345.992846 C294.643729,349.659513 292.737479,349.786497 294.721854,353.167449 C295.534354,354.516656 298.471854,355.992846 300.018729,358.405544 C301.565604,360.818243 301.315604,363.707132 302.534354,365.453163 C303.753104,367.199195 306.487479,368.024592 308.190604,370.215068 C309.893729,372.405544 310.018729,375.500782 311.315604,376.992846 C312.612479,378.484909 315.565604,379.167449 317.440604,381.072211 C319.315604,382.976973 319.956229,385.992846 321.456229,387.294433 C322.956229,388.596021 325.909354,388.754751 328.128104,390.469036 C330.346854,392.183322 331.253104,395.135703 332.815604,396.215068 C334.378104,397.294433 337.503104,397.373798 339.768729,398.786497 C342.034354,400.199195 343.549979,403.342052 344.909354,404.151576 C348.221854,406.167449 348.362479,404.246814 351.971854,406.167449 C352.74419,406.570705 353.048497,407.533648 352.651542,408.318243 C352.254587,409.102838 351.30669,409.411975 350.534354,409.008719 L350.471854,408.945227 Z" id="Shape" fill-opacity="0.75" fill="#1D8348" fill-rule="nonzero" transform="translate(318.077690, 380.451373) rotate(40.000000) translate(-318.077690, -380.451373) "></path>
        <ellipse id="Oval" fill-opacity="0.75" fill="#1D8348" fill-rule="nonzero" transform="translate(208.137925, 509.168711) rotate(40.000000) translate(-208.137925, -509.168711) " cx="208.137925" cy="509.168711" rx="14.5833333" ry="11.2903226"></ellipse>
        <path d="M245.635769,474.442326 C232.073269,486.700391 191.469102,487.781036 175.219102,474.797165 C174.552436,474.281036 176.885769,474.442326 160.219102,474.442326 L172.719102,534.119746 L178.969102,538.958455 C195.489936,534.700391 224.927436,534.684262 241.469102,538.958455 L247.719102,534.119746 L260.219102,474.442326 L245.635769,474.442326 Z M210.219102,524.442326 C199.863763,524.442326 191.469102,517.943234 191.469102,509.926197 C191.469102,501.909161 199.863763,495.410068 210.219102,495.410068 C220.574441,495.410068 228.969102,501.909161 228.969102,509.926197 C228.969102,517.943234 220.574441,524.442326 210.219102,524.442326 Z" id="Shape" fill-opacity="0.75" fill="#1D8348" fill-rule="nonzero" transform="translate(210.219102, 506.688461) rotate(40.000000) translate(-210.219102, -506.688461) "></path>
        <path d="M247.391057,460.841538 L247.391057,447.938312 L239.057723,447.938312 L239.057723,459.228635 L245.307723,459.228635 C246.458317,459.228635 247.391057,459.950756 247.391057,460.841538 Z" id="Path" fill-opacity="0.75" fill="#1D8348" fill-rule="nonzero" transform="translate(243.224390, 454.389925) rotate(40.000000) translate(-243.224390, -454.389925) "></path>
        <path d="M263.165367,483.278106 L263.165367,505.858751 C263.701474,505.557983 264.216119,505.234928 264.707034,504.891009 C268.290367,478.907138 267.811201,480.616815 268.748701,480.052299 C269.686201,479.487783 269.415367,481.132944 269.415367,473.600686 L261.082034,473.600686 L261.082034,481.665203 C262.232627,481.665203 263.165367,482.387324 263.165367,483.278106 Z" id="Path" fill-opacity="0.75" fill="#1D8348" fill-rule="nonzero" transform="translate(265.266860, 489.729719) rotate(40.000000) translate(-265.266860, -489.729719) "></path>
        <polygon id="Path" fill-opacity="0.75" fill="#1D8348" fill-rule="nonzero" transform="translate(270.502701, 498.176190) rotate(40.000000) translate(-270.502701, -498.176190) " points="273.440201 507.974577 276.002701 489.08748 267.711034 488.377803 265.002701 507.974577"></polygon>
        <path d="M256.308053,499.315761 L256.308053,476.315761 L247.974719,476.315761 L247.974719,501.960922 C250.869317,501.318306 253.663884,500.431257 256.308053,499.315761 L256.308053,499.315761 Z" id="Path" fill-opacity="0.75" fill="#1D8348" fill-rule="nonzero" transform="translate(252.141386, 489.138342) rotate(40.000000) translate(-252.141386, -489.138342) "></path>
        <path d="M248.425394,497.121247 C249.071228,496.976086 248.862894,499.363182 248.862894,468.959956 C248.862894,468.069175 249.795634,467.347053 250.946228,467.347053 L250.946228,460.89544 L242.612894,460.89544 L242.612894,497.750279 C244.563492,497.620962 246.503762,497.410985 248.425394,497.121247 Z" id="Path" fill-opacity="0.75" fill="#1D8348" fill-rule="nonzero" transform="translate(246.779561, 479.322860) rotate(40.000000) translate(-246.779561, -479.322860) "></path>
        <path d="M228.292113,488.009643 C230.978786,488.203618 233.678425,488.268258 236.375446,488.203191 C236.729613,488.203191 236.625446,490.654804 236.625446,465.622546 L228.292113,465.622546 L228.292113,488.009643 Z" id="Path" fill-opacity="0.75" fill="#1D8348" fill-rule="nonzero" transform="translate(232.465924, 476.945755) rotate(40.000000) translate(-232.465924, -476.945755) "></path>
        <path d="M222.071857,480.416839 C222.426024,480.416839 225.051024,481.094259 228.321857,481.545872 L228.321857,457.981355 C228.321857,457.090574 229.254597,456.368452 230.40519,456.368452 L230.40519,454.755549 L222.071857,454.755549 L222.071857,480.416839 Z" id="Path" fill-opacity="0.75" fill="#1D8348" fill-rule="nonzero" transform="translate(226.238524, 468.150710) rotate(40.000000) translate(-226.238524, -468.150710) "></path>
        <path d="M223.177617,475.124514 L223.177617,448.995482 C223.177617,448.1047 224.110357,447.382578 225.26095,447.382578 L227.344284,447.382578 L227.344284,442.543869 L219.01095,442.543869 L219.01095,473.608385 C220.355299,474.184094 221.747206,474.690569 223.177617,475.124514 L223.177617,475.124514 Z" id="Path" fill-opacity="0.75" fill="#1D8348" fill-rule="nonzero" transform="translate(223.177617, 458.834191) rotate(40.000000) translate(-223.177617, -458.834191) "></path>
        <path d="M219.144149,463.564011 C219.644149,463.902721 220.248316,464.289818 220.977483,464.725302 L220.977483,429.225302 L212.644149,429.225302 L212.644149,440.241431 C217.185816,439.870463 215.914983,438.547882 219.144149,463.564011 Z" id="Path" fill-opacity="0.75" fill="#1D8348" fill-rule="nonzero" transform="translate(216.810816, 446.975302) rotate(40.000000) translate(-216.810816, -446.975302) "></path>
        <polygon id="Path" fill-opacity="0.75" fill="#1D8348" fill-rule="nonzero" transform="translate(207.575641, 446.426865) rotate(40.000000) translate(-207.575641, -446.426865) " points="212.877724 455.4188 210.565224 437.434929 202.273557 438.112348 204.461057 455.4188"></polygon>
        <g id="Burrito" opacity="0.75" transform="translate(409.507849, 267.629657) rotate(40.000000) translate(-409.507849, -267.629657) translate(360.507849, 218.129657)" fill="#1D8348" fill-rule="nonzero">
            <path d="M7.69230769,21.2217254 L7.69230769,94.2386746 C20.4502515,94.2781934 32.999931,92.2360646 44.0769231,88.3174603 C9.35897436,72.5873016 9.1025641,43.0793651 44.0769231,27.1428571 C32.9980881,23.227044 20.449639,21.1851154 7.69230769,21.2217254 Z M20.5128205,81.5396825 C20.5128205,82.416325 19.3648327,83.1269841 17.9487179,83.1269841 C16.5326032,83.1269841 15.3846154,82.416325 15.3846154,81.5396825 C15.3846154,80.6630401 16.5326032,79.952381 17.9487179,79.952381 C19.3648327,79.952381 20.5128205,80.6630401 20.5128205,81.5396825 Z M25.6410256,30.7460317 C27.0571404,30.7460317 28.2051282,31.4566909 28.2051282,32.3333333 C28.2051282,33.2099758 27.0571404,33.9206349 25.6410256,33.9206349 C24.2249109,33.9206349 23.0769231,33.2099758 23.0769231,32.3333333 C23.0769231,31.4566909 24.2249109,30.7460317 25.6410256,30.7460317 Z" id="Shape"></path>
            <path d="M16.2051282,97.1428571 C32.6923077,99.6190476 64.7179487,99.6190476 81.2307692,97.1428571 C69.6911881,96.4300513 58.5689291,94.0897322 48.7179487,90.3015873 C38.844393,94.0600947 27.7334326,96.3980364 16.2051282,97.1428571 L16.2051282,97.1428571 Z" id="Path"></path>
        </g>
        <g id="Pancake" opacity="0.75" transform="translate(65.000000, 67.000000) rotate(40.000000) translate(-65.000000, -67.000000) translate(15.000000, 17.000000)" fill="#1D8348" fill-rule="nonzero">
            <rect id="Rectangle" x="41.9354839" y="0" width="16.1290323" height="13.1578947"></rect>
            <path d="M51.6129032,28.9473684 L48.3870968,28.9473684 C48.3870968,27.4939875 49.1092181,26.3157895 50,26.3157895 C50.8907819,26.3157895 51.6129032,27.4939875 51.6129032,28.9473684 Z" id="Path"></path>
            <path d="M91.9354839,28.9473684 L74.1935484,28.9473684 L74.1935484,23.6842105 C74.1935484,20.7774487 75.6377911,18.4210526 77.4193548,18.4210526 L88.7096774,18.4210526 C93.5483871,18.4210526 95.0483871,28.9473684 91.9354839,28.9473684 Z" id="Path"></path>
            <path d="M91.9354839,44.7368421 L74.1935484,44.7368421 L74.1935484,34.2105263 L88.7096774,34.2105263 C93.5483871,34.2105263 95.0483871,44.7368421 91.9354839,44.7368421 Z" id="Path"></path>
            <path d="M64.516129,36.8421053 L64.516129,44.7368421 L48.3870968,44.7368421 L48.3870968,34.2105263 L51.6129032,34.2105263 L51.6129032,36.8421053 C51.6129032,47.3684211 61.2903226,47.3684211 61.2903226,36.8421053 C61.2903226,35.3887243 62.012444,34.2105263 62.9032258,34.2105263 C63.7940077,34.2105263 64.516129,35.3887243 64.516129,36.8421053 Z" id="Path"></path>
            <path d="M38.7096774,42.1052632 L38.7096774,44.7368421 L35.483871,44.7368421 L35.483871,42.1052632 C35.483871,40.6518822 36.2059923,39.4736842 37.0967742,39.4736842 C37.987556,39.4736842 38.7096774,40.6518822 38.7096774,42.1052632 Z" id="Path"></path>
            <path d="M71.8387097,18.4210526 C70.6774194,21.7105263 70.9677419,21.0526316 70.9677419,50 C70.9677419,51.4533809 70.2456206,52.6315789 69.3548387,52.6315789 C68.4640569,52.6315789 67.7419355,51.4533809 67.7419355,50 L67.7419355,36.8421053 C67.7419355,32.4819625 65.5755714,28.9473684 62.9032258,28.9473684 C60.2308802,28.9473684 58.0645161,32.4819625 58.0645161,36.8421053 C58.0645161,38.2954862 57.3423948,39.4736842 56.4516129,39.4736842 C55.560831,39.4736842 54.8387097,38.2954862 54.8387097,36.8421053 L54.8387097,28.9473684 C54.8387097,18.6052632 45.1612903,18.4210526 45.1612903,28.9473684 L45.1612903,47.3684211 C45.1612903,48.821802 44.439169,50 43.5483871,50 C42.6576052,50 41.9354839,48.821802 41.9354839,47.3684211 L41.9354839,42.1052632 C41.9354839,31.7631579 32.2580645,31.5789474 32.2580645,42.1052632 L32.2580645,63.1578947 C32.2580645,64.6112757 31.5359431,65.7894737 30.6451613,65.7894737 C29.7543794,65.7894737 29.0322581,64.6112757 29.0322581,63.1578947 C29.0322581,20.2105263 29.3387097,21.7631579 28.1612903,18.4210526 L71.8387097,18.4210526 Z" id="Path"></path>
            <path d="M25.8064516,23.6842105 L25.8064516,28.9473684 L8.06451613,28.9473684 C5.82258065,28.9473684 6.09677419,23.6842105 7.85483871,20.7368421 C9.61290323,17.7894737 10.7419355,18.4210526 22.5806452,18.4210526 C24.3622089,18.4210526 25.8064516,20.7774487 25.8064516,23.6842105 Z" id="Path"></path>
            <path d="M25.8064516,34.2105263 L25.8064516,44.7368421 L8.06451613,44.7368421 C5.82258065,44.7368421 6.09677419,39.4736842 7.85483871,36.5263158 C9.88709677,33.2894737 10.6774194,34.2105263 25.8064516,34.2105263 Z" id="Path"></path>
            <path d="M25.8064516,50 L25.8064516,60.5263158 L8.06451613,60.5263158 C5.82258065,60.5263158 6.09677419,55.2631579 7.85483871,52.3157895 C9.88709677,49.0789474 10.6774194,50 25.8064516,50 Z" id="Path"></path>
            <path d="M91.9354839,60.5263158 L35.483871,60.5263158 L35.483871,50 L38.983871,50 C39.6652726,53.1603773 41.4950245,55.2748946 43.5483871,55.2748946 C45.6017497,55.2748946 47.4315016,53.1603773 48.1129032,50 L64.516129,50 C64.516129,60.5263158 74.1935484,60.3421053 74.1935484,50 L88.7096774,50 C93.5483871,50 95.0483871,60.5263158 91.9354839,60.5263158 Z" id="Path"></path>
            <path d="M91.9354839,76.3157895 L8.06451613,76.3157895 C5.01612903,76.3157895 6.4516129,65.7894737 11.2903226,65.7894737 L26.0806452,65.7894737 C26.7620467,68.949851 28.5917987,71.0643683 30.6451613,71.0643683 C32.6985239,71.0643683 34.5282758,68.949851 35.2096774,65.7894737 L88.7096774,65.7894737 C93.5483871,65.7894737 95.0483871,76.3157895 91.9354839,76.3157895 Z" id="Path"></path>
            <path d="M100,81.5789474 C97.6403254,92.6598081 91.2218975,100.064374 84.0322581,100 L15.9677419,100 C8.77810247,100.064374 2.35967458,92.6598081 0,81.5789474 L100,81.5789474 Z" id="Path"></path>
        </g>
        <g id="plate-copy" filter="url(#filter-1)" transform="translate(52.000000, 58.000000)">
            <g id="Group-3">
                <g id="Group">
                    <g id="Oval">
                        <use fill="#FFFFFF" fill-rule="evenodd" xlink:href="#path-2"></use>
                        <use fill="black" fill-opacity="1" filter="url(#filter-3)" xlink:href="#path-2"></use>
                        <ellipse stroke="#FFFFFF" stroke-width="29" stroke-linejoin="square" cx="139" cy="143.5" rx="124.5" ry="129"></ellipse>
                    </g>
                    <g id="Oval">
                        <use fill="#FFFFFF" fill-rule="evenodd" xlink:href="#path-4"></use>
                        <use fill="black" fill-opacity="1" filter="url(#filter-5)" xlink:href="#path-4"></use>
                        <ellipse stroke="#FFFFFF" stroke-width="29" stroke-linejoin="square" cx="139" cy="143" rx="81.5" ry="83.5"></ellipse>
                    </g>
                </g>
                <text id="Meal" font-family="Yellowtail-Regular, Yellowtail" font-size="80" font-weight="normal" fill="#1D8348">
                    <tspan x="49.4782609" y="119.944089">Meal</tspan>
                </text>
                <text id="Mate" font-family="Futura-MediumItalic, Futura" font-size="50" font-style="italic" font-weight="400" fill="#2ECC71">
                    <tspan x="126.37037" y="174.693291">Mate</tspan>
                </text>
            </g>
        </g>
    </g>
</svg>