<?xml version="1.0" encoding="UTF-8"?>
<svg width="541px" height="603px" viewBox="0 0 541 603" version="1.1" xmlns="http://www.w3.org/2000/svg" xmlns:xlink="http://www.w3.org/1999/xlink">
    <title>RecipeModalMobile</title>
    <defs>
        <path d="M48.5407609,128.615964 C49.1136776,128.615964 49.5954484,128.199297 49.9860734,127.365964 C54.4131567,118.459714 61.4053442,107.678464 70.9626359,95.022214 C75.9886776,88.3555473 80.9626359,82.3138807 85.8845109,76.897214 C82.5511776,82.5742973 78.4235734,90.2175265 73.5016984,99.8269015 C68.5798234,109.436277 66.0668026,114.787839 65.9626359,115.881589 L65.9626359,115.881589 L65.9626359,116.076902 C65.9626359,116.936277 66.4313859,117.711016 67.3688859,118.40112 C68.3063859,119.091224 69.198313,119.436277 70.0446672,119.436277 C70.8910213,119.436277 71.5355526,119.253985 71.9782609,118.889402 C72.9635925,118.076264 74.841521,116.287946 77.6120463,113.524449 L78.0820653,113.054837 C82.8649032,108.26842 90.1271767,100.773171 99.8688859,90.569089 C107.056386,83.0170057 111.483469,78.381589 113.150136,76.662839 C105.259511,87.6263807 98.7751359,97.209714 93.6970109,105.412839 C90.3115942,110.933672 88.6188859,114.501381 88.6188859,116.115964 C88.6188859,117.470131 89.1266984,118.674558 90.1423234,119.729245 C91.1579484,120.783933 92.5641984,121.311277 94.3610734,121.311277 C96.1579484,121.311277 98.9509172,119.859454 102.73998,116.955808 C106.529042,114.052162 109.282948,111.480547 111.001698,109.240964 C111.65274,108.381589 111.978261,107.639402 111.978261,107.014402 L111.978261,107.014402 L111.665761,105.530027 C111.665761,105.42586 111.64623,105.224037 111.607167,104.924558 C111.568105,104.625079 111.529042,104.33862 111.48998,104.065183 C111.450917,103.791745 111.379303,103.316485 111.275136,102.639402 C111.040761,101.467527 110.702219,101.142006 110.259511,101.662839 C110.181386,101.767006 110.09024,101.871172 109.986073,101.975339 C109.881907,102.079506 109.712636,102.287839 109.478261,102.600339 C104.061594,108.563881 99.9860734,111.83211 97.2516984,112.405027 C98.6058651,109.384193 102.186594,103.576902 107.993886,94.9831515 C113.801178,86.3894015 120.936594,76.4675265 129.400136,65.2175265 C129.556386,65.0352348 129.634511,64.8008598 129.634511,64.5144015 C129.634511,64.2279432 129.484771,63.9479953 129.185292,63.6745578 C128.885813,63.4011203 128.52774,63.225339 128.111073,63.147214 C126.626698,63.147214 125.077219,62.912839 123.462636,62.444089 C122.551178,62.1836723 121.795969,62.053464 121.197011,62.053464 C119.712636,62.053464 115.155344,65.7513807 107.525136,73.147214 C101.665761,78.850339 96.073313,84.5664848 90.7477922,90.2956515 C85.4222713,96.0248182 81.3272192,100.621172 78.4626359,104.084714 C81.4574276,98.303464 87.3168026,87.678464 96.0407609,72.209714 C98.6449276,67.5482557 99.9470109,65.0612765 99.9470109,64.7487765 C99.9470109,64.2539848 99.4717505,63.8112765 98.5212297,63.4206515 C97.5707088,63.0300265 96.5941463,62.834714 95.5915422,62.834714 C94.588938,62.834714 93.9183651,63.0430473 93.5798234,63.459714 C93.5016984,63.537839 93.4235734,63.5769015 93.3454484,63.5769015 C93.2673234,63.5769015 93.0720109,63.4922661 92.7595109,63.3229953 C92.4470109,63.1537244 92.1214901,63.069089 91.7829484,63.069089 C89.6475317,63.069089 84.8428442,67.444089 77.3688859,76.194089 C71.9522192,82.522214 66.7178442,89.1042453 61.6657609,95.9401828 C56.6136776,102.77612 52.1735734,109.078204 48.3454484,114.846433 C44.5173234,120.614662 42.6032609,123.967527 42.6032609,124.905027 C42.6032609,126.467527 43.7490942,127.561277 46.0407609,128.186277 C47.1345109,128.472735 47.9678442,128.615964 48.5407609,128.615964 Z M122.642323,121.467527 C127.616282,121.467527 132.889719,119.201902 138.462636,114.670652 C139.322011,113.967527 139.842844,113.375079 140.025136,112.893308 C140.207428,112.411537 140.298573,111.415443 140.298573,109.905027 C140.298573,108.39461 139.960032,107.639402 139.282948,107.639402 C139.074615,107.639402 138.768625,107.782631 138.36498,108.069089 C137.961334,108.355547 136.997792,109.117266 135.474355,110.354245 C133.950917,111.591224 132.238678,112.808672 130.337636,114.006589 C128.098053,115.412839 125.87149,116.115964 123.657948,116.115964 C120.194407,116.115964 118.462636,115.100339 118.462636,113.069089 C118.462636,111.923256 121.210032,109.813881 126.704823,106.740964 C126.991282,106.584714 127.564198,106.356849 128.423573,106.05737 C129.282948,105.757891 130.051178,105.321693 130.728261,104.748777 C131.405344,104.17586 131.743886,103.71362 131.743886,103.362058 C131.743886,103.010495 131.548573,102.528724 131.157948,101.916745 C130.767323,101.304766 130.40274,100.907631 130.064198,100.725339 C129.907948,100.673256 129.575917,100.647214 129.068105,100.647214 C128.560292,100.647214 127.668365,100.862058 126.392323,101.291745 C125.116282,101.721433 124.172271,101.936277 123.560292,101.936277 C122.948313,101.936277 122.642323,101.83211 122.642323,101.623777 C122.642323,100.998777 123.475657,100.048256 125.142323,98.772214 C126.80899,97.4961723 128.21524,96.5326307 129.361073,95.881589 C130.506907,95.2305473 131.548573,94.7487765 132.486073,94.4362765 C132.381907,94.8529432 132.329823,95.2826307 132.329823,95.725339 C132.329823,96.1680473 132.420969,96.5261203 132.603261,96.7995578 C132.785553,97.0729953 133.163157,97.209714 133.736073,97.209714 C135.506907,97.209714 137.088938,96.5586723 138.482167,95.256589 C139.875396,93.9545057 140.572011,92.444089 140.572011,90.725339 C140.572011,89.9701307 140.129303,89.3841932 139.243886,88.9675265 C138.358469,88.5508598 137.486073,88.3425265 136.626698,88.3425265 C133.032948,88.3425265 128.944407,89.5795057 124.361073,92.053464 C122.303782,93.147214 120.5655,94.5469536 119.14623,96.2526828 C117.726959,97.9584119 117.017323,99.5729953 117.017323,101.096433 C117.017323,102.61987 117.160553,103.726641 117.447011,104.416745 C117.733469,105.106849 118.37149,105.673256 119.361073,106.115964 C114.387115,107.964922 111.900136,110.686277 111.900136,114.280027 C111.900136,117.014402 113.358469,119.045652 116.275136,120.373777 C117.863678,121.102943 119.986073,121.467527 122.642323,121.467527 Z M163.013417,121.311277 C165.109771,121.311277 167.4405,120.26961 170.005605,118.186277 C172.570709,116.102943 174.230865,114.319089 174.986073,112.834714 C175.142323,112.522214 175.220448,111.962318 175.220448,111.155027 C175.220448,110.347735 175.168365,109.566485 175.064198,108.811277 C174.960032,108.056068 174.660553,107.678464 174.165761,107.678464 C173.853261,107.678464 173.618886,107.743568 173.462636,107.873777 C173.441803,107.891138 173.415298,107.915212 173.383122,107.945999 L173.26958,108.058499 C173.030228,108.30167 172.61932,108.747908 172.036855,109.397214 C171.242584,110.282631 170.428782,111.148516 169.595448,111.99487 C168.762115,112.841224 167.811594,113.635495 166.743886,114.377683 C165.676178,115.11987 164.751698,115.490964 163.970448,115.490964 C163.189198,115.490964 162.798573,114.774818 162.798573,113.342527 C162.798573,112.873777 162.837636,112.509193 162.915761,112.248777 C163.306386,110.139402 164.172271,107.593829 165.513417,104.612058 C166.854563,101.630287 168.078521,99.1823703 169.185292,97.2683078 C169.396106,96.9037244 169.592983,96.567722 169.775924,96.2603004 L170.039884,95.8206037 C170.673653,94.774951 171.111445,94.131217 171.353261,93.8894015 C171.691803,93.5508598 171.861073,93.0170057 171.861073,92.287839 C171.861073,90.9336723 170.87149,90.256589 168.892323,90.256589 C168.032948,90.256589 167.388417,90.3802869 166.95873,90.6276828 C166.529042,90.8750786 166.001698,91.4675265 165.376698,92.4050265 C165.142323,91.7019015 164.582428,91.115964 163.697011,90.647214 C162.811594,90.178464 161.665761,89.944089 160.259511,89.944089 C156.613678,89.944089 152.629303,91.6367973 148.306386,95.022214 C146.249094,96.6367973 144.361073,98.4271619 142.642323,100.393308 C140.923573,102.359454 139.536855,104.533933 138.482167,106.916745 C137.42748,109.299558 136.900136,111.669349 136.900136,114.02612 C136.900136,116.382891 137.616282,118.225339 139.048573,119.553464 C140.168365,120.621172 141.613678,121.155027 143.384511,121.155027 C145.155344,121.155027 147.4405,120.178464 150.23998,118.225339 C153.039459,116.272214 155.519928,113.889402 157.681386,111.076902 C157.160553,112.248777 156.900136,113.609454 156.900136,115.158933 C156.900136,116.708412 157.394928,118.121172 158.384511,119.397214 C159.374094,120.673256 160.917063,121.311277 163.013417,121.311277 Z M143.853261,114.826902 C143.332428,114.826902 143.072011,114.371172 143.072011,113.459714 C143.072011,112.548256 143.781646,110.855547 145.200917,108.381589 C146.620188,105.907631 148.176178,103.785235 149.868886,102.014402 C154.634511,97.0664848 159.243886,94.5925265 163.697011,94.5925265 C160.155344,99.4623182 157.785553,102.652422 156.587636,104.162839 C155.493886,105.517006 153.280344,107.632891 149.947011,110.510495 C146.613678,113.388099 144.582428,114.826902 143.853261,114.826902 Z M180.650136,121.467527 C183.098053,121.467527 185.689198,120.809974 188.423573,119.49487 C191.157948,118.179766 193.618886,116.181068 195.806386,113.498777 C196.170969,113.030027 196.353261,112.287839 196.353261,111.272214 L196.353261,111.272214 L196.353261,110.490964 C196.353261,108.589922 196.040761,107.639402 195.415761,107.639402 C194.790761,107.639402 193.176178,108.980547 190.572011,111.662839 C189.582428,112.678464 188.417063,113.602943 187.075917,114.436277 C185.734771,115.26961 184.478261,115.686277 183.306386,115.686277 C182.134511,115.686277 181.151438,115.341224 180.357167,114.65112 C179.562896,113.961016 179.165761,113.186277 179.165761,112.326902 C179.165761,111.467527 179.263417,110.614662 179.45873,109.768308 C179.654042,108.921954 179.764719,108.342527 179.790761,108.030027 C183.957428,103.420652 188.306386,98.225339 192.837636,92.444089 C195.702219,88.7982557 198.267323,85.3542453 200.532948,82.1120578 C202.798573,78.8698703 204.738678,75.6927869 206.353261,72.5808078 C207.967844,69.4688286 208.775136,67.1836723 208.775136,65.725339 C208.775136,64.2670057 208.299875,63.1667453 207.349355,62.4245578 C206.398834,61.6823703 205.298573,61.3112765 204.048573,61.3112765 C199.986073,61.3112765 194.113678,66.7539848 186.431386,77.6394015 C183.019928,82.4571098 179.953521,88.2969536 177.232167,95.1589328 C174.510813,102.020912 173.150136,107.990964 173.150136,113.069089 C173.150136,115.673256 173.788157,117.724037 175.064198,119.221433 C176.34024,120.718829 178.202219,121.467527 180.650136,121.467527 Z M181.392323,99.162839 C182.928782,94.475339 184.562896,90.5821098 186.294667,87.4831515 C188.026438,84.3841932 190.832428,80.2305473 194.712636,75.022214 C198.592844,69.8138807 200.988678,67.209714 201.900136,67.209714 C202.160553,67.209714 202.290761,67.4050265 202.290761,67.7956515 C202.290761,69.6185682 199.575917,74.3907036 194.14623,82.1120578 C188.716542,89.8334119 184.46524,95.5170057 181.392323,99.162839 Z" id="path-1"></path>
        <path d="M149.124276,177.33001 L163.723886,150.669853 L165.408456,174.693291 L170.730722,174.693291 L167.630136,133.433525 L150.393807,165.147393 L140.847909,134.336846 L127.8108,174.693291 L133.52369,174.693291 L141.043222,150.669853 L149.124276,177.33001 Z M187.454354,175.2304 C189.928313,175.2304 192.320891,174.221286 194.632089,172.203057 L194.632089,172.203057 L194.314706,174.693291 L199.710214,174.693291 L202.542245,151.695244 L197.146737,151.695244 L196.780526,154.722588 C195.559823,153.404228 194.363534,152.476494 193.191659,151.939385 C192.03606,151.402275 190.636321,151.133721 188.99244,151.133721 C185.509367,151.133721 182.652922,152.346286 180.423104,154.771416 C178.225839,157.196546 177.127206,160.30527 177.127206,164.097588 C177.127206,167.385348 178.087492,170.062757 180.008065,172.129814 C181.928638,174.196872 184.410735,175.2304 187.454354,175.2304 Z M188.650643,170.762627 C186.860279,170.762627 185.395435,170.119723 184.256112,168.833916 C183.116789,167.548109 182.547128,165.89609 182.547128,163.877861 C182.547128,161.566663 183.230722,159.613538 184.597909,158.018486 C185.965097,156.43971 187.657805,155.650322 189.676034,155.650322 C191.531503,155.650322 193.045175,156.293226 194.21705,157.579033 C195.388925,158.848564 195.974862,160.500583 195.974862,162.535088 C195.974862,164.764906 195.250578,166.701755 193.802011,168.345635 C192.353443,169.956963 190.636321,170.762627 188.650643,170.762627 Z M213.015878,174.693291 L215.237557,156.700127 L220.218026,156.700127 L220.828378,151.695244 L215.847909,151.695244 L217.166268,141.026299 L211.770761,141.026299 L210.452401,151.695244 L207.400643,151.695244 L206.790292,156.700127 L209.84205,156.700127 L207.62037,174.693291 L213.015878,174.693291 Z M234.549081,175.425713 C236.795175,175.425713 238.666919,175.043226 240.164315,174.278252 C241.645435,173.529554 243.085865,172.211195 244.485604,170.323174 L244.485604,170.323174 L240.457284,168.101494 C239.106373,169.989515 237.169524,170.933525 234.646737,170.933525 C232.807544,170.933525 231.293873,170.388278 230.105722,169.297783 C228.933847,168.207288 228.347909,166.815687 228.347909,165.122978 L228.347909,165.122978 L246.121347,165.122978 C246.170175,164.244072 246.194589,163.609307 246.194589,163.218682 C246.194589,159.475192 245.193612,156.488538 243.191659,154.258721 C241.222258,152.045179 238.528573,150.938408 235.110604,150.938408 C231.578703,150.938408 228.657154,152.167249 226.345956,154.624932 C224.018482,157.09889 222.854745,160.175062 222.854745,163.853447 C222.854745,167.369072 223.912688,170.176689 226.028573,172.276299 C228.144459,174.375908 230.984628,175.425713 234.549081,175.425713 Z M240.725839,160.777275 L228.640878,160.777275 C229.601164,157.229098 231.668222,155.45501 234.84205,155.45501 C238.194914,155.45501 240.156177,157.229098 240.725839,160.777275 L240.725839,160.777275 Z" id="path-2"></path>
    </defs>
    <g id="Page-1" stroke="none" stroke-width="1" fill="none" fill-rule="evenodd">
        <g id="RecipeModalMobile">
            <rect id="Rectangle" fill="#2ECC71" fill-rule="nonzero" x="87" y="39" width="360" height="500"></rect>
            <g id="Group-2" opacity="0.75" transform="translate(207.753163, 347.855022) rotate(40.000000) translate(-207.753163, -347.855022) translate(157.753163, 84.355022)" fill="#1D8348" fill-rule="nonzero">
                <g id="Baguette">
                    <path d="M25.8064516,11.2173913 C26.8548387,10.173913 27.9193548,9.2173913 29.0322581,8.34782609 C29.1015985,18.2041232 28.5563814,28.0218255 27.4193548,37.3913043 C25.9516129,28.173913 26.0322581,13.0434783 25.8064516,11.2173913 Z" id="Path"></path>
                    <path d="M50,33.0869565 C48.7580645,25.1304348 48.3870968,9.34782609 48.3870968,0.0434782609 C49.1290323,0.0434782609 50.8709677,0.0434782609 51.6129032,0.0434782609 C51.6129032,9.26086957 51.2419355,25.1304348 50,33.0869565 Z" id="Path"></path>
                    <path d="M72.5806452,37.3913043 C71.4436186,28.0218255 70.8984015,18.2041232 70.9677419,8.34782609 C72.0645161,9.2173913 73.1290323,10.173913 74.1935484,11.2173913 C73.983871,13.0434783 74.016129,28.3478261 72.5806452,37.3913043 Z" id="Path"></path>
                    <path d="M100,69.5652174 C100,91.3043478 77.6129032,95.6521739 50,95.6521739 C22.3870968,95.6521739 0,91.3043478 0,69.5652174 C0,52.7826087 9.03225806,29.2173913 22.6935484,14.3913043 C23,30 24.1935484,47.826087 27.4193548,47.826087 C32.0322581,47.826087 32.4677419,8.91304348 32.2580645,5.95652174 C36.4883029,3.07535439 40.8073158,1.24165173 45.1612903,0.47826087 C45.1612903,10.9565217 45.5645161,43.4782609 50,43.4782609 C54.4354839,43.4782609 54.8387097,10.9565217 54.8387097,0.47826087 C59.1926842,1.24165173 63.5116971,3.07535439 67.7419355,5.95652174 C67.5322581,8.2173913 67.7419355,47.826087 72.5806452,47.826087 C75.8064516,47.826087 77,30 77.3064516,14.3913043 C90.9677419,29.2173913 100,52.7826087 100,69.5652174 Z" id="Path"></path>
                </g>
                <g id="Cheese" transform="translate(0.000000, 144.000000)">
                    <ellipse id="Oval" cx="16.1290323" cy="73.9130435" rx="4.83870968" ry="6.52173913"></ellipse>
                    <ellipse id="Oval" cx="59.6774194" cy="80.4347826" rx="4.83870968" ry="6.52173913"></ellipse>
                    <ellipse id="Oval" cx="38.7096774" cy="58.6956522" rx="3.22580645" ry="4.34782609"></ellipse>
                    <path d="M77.1129032,45.6521739 C74.7419355,54.3478261 60.7419355,54.3478261 58.3709677,45.6521739 L0,45.6521739 L0,100 L27.4193548,100 C27.4193548,95.1975239 30.3078403,91.3043478 33.8709677,91.3043478 C37.4340952,91.3043478 40.3225806,95.1975239 40.3225806,100 L100,100 L100,45.6521739 L77.1129032,45.6521739 Z M16.1290323,84.7826087 C11.675123,84.7826087 8.06451613,79.9161386 8.06451613,73.9130435 C8.06451613,67.9099484 11.675123,63.0434783 16.1290323,63.0434783 C20.5829415,63.0434783 24.1935484,67.9099484 24.1935484,73.9130435 C24.1935484,76.7958314 23.3438964,79.5605479 21.8315063,81.5989868 C20.3191162,83.6374256 18.2678749,84.7826087 16.1290323,84.7826087 L16.1290323,84.7826087 Z M38.7096774,67.3913043 C35.14655,67.3913043 32.2580645,63.4981283 32.2580645,58.6956522 C32.2580645,53.8931761 35.14655,50 38.7096774,50 C42.2728048,50 45.1612903,53.8931761 45.1612903,58.6956522 C45.1612903,63.4981283 42.2728048,67.3913043 38.7096774,67.3913043 Z M59.6774194,91.3043478 C56.4156271,91.3043478 53.4750118,88.6560633 52.226778,84.5943851 C50.9785441,80.532707 51.6685099,75.8575132 53.9749453,72.7488393 C56.2813808,69.6401655 59.7500729,68.7102116 62.7635761,70.3926138 C65.7770792,72.075016 67.7419355,76.0384539 67.7419355,80.4347826 C67.7419355,86.4378777 64.1313286,91.3043478 59.6774194,91.3043478 L59.6774194,91.3043478 Z M83.8709677,78.2608696 C78.5262766,78.2608696 74.1935484,72.4211054 74.1935484,65.2173913 C74.1935484,58.0136772 78.5262766,52.173913 83.8709677,52.173913 C89.2156589,52.173913 93.5483871,58.0136772 93.5483871,65.2173913 C93.5483871,72.4211054 89.2156589,78.2608696 83.8709677,78.2608696 L83.8709677,78.2608696 Z" id="Shape"></path>
                    <ellipse id="Oval" cx="83.8709677" cy="65.2173913" rx="6.4516129" ry="8.69565217"></ellipse>
                    <path d="M62.2741935,45.6521739 C66.9516129,50.7608696 77.4354839,45.826087 73.2096774,41.3043478 C68.5322581,36.1956522 58.0645161,41.1304348 62.2741935,45.6521739 Z" id="Path"></path>
                    <ellipse id="Oval" cx="74.1935484" cy="17.3913043" rx="3.22580645" ry="4.34782609"></ellipse>
                    <path d="M77.1129032,41.3043478 L100,41.3043478 C99.0967742,24.7826087 87.9354839,8.08695652 74.1935484,0 L44.9032258,17.1521739 C45.7792631,21.3386165 44.2254264,25.7535198 41.2656867,27.4874837 C38.305947,29.2214476 34.8509061,27.7409959 33.1774194,24.0217391 L3.70967742,41.3043478 L58.3709677,41.3043478 C60.7419355,32.6086957 74.7419355,32.6086957 77.1129032,41.3043478 Z M74.1935484,8.69565217 C77.7566758,8.69565217 80.6451613,12.5888283 80.6451613,17.3913043 C80.6451613,22.1937804 77.7566758,26.0869565 74.1935484,26.0869565 C70.630421,26.0869565 67.7419355,22.1937804 67.7419355,17.3913043 C67.7419355,12.5888283 70.630421,8.69565217 74.1935484,8.69565217 Z" id="Shape"></path>
                </g>
                <g id="Coffee" transform="translate(0.000000, 290.000000)">
                    <polygon id="Path" points="87.6086957 79.0322581 84.7826087 100 15.2173913 100 12.3913043 79.0322581"></polygon>
                    <polygon id="Path" points="95.2173913 22.5806452 94.1304348 30.6451613 5.86956522 30.6451613 4.7826087 22.5806452"></polygon>
                    <ellipse id="Oval" cx="50" cy="54.8387097" rx="17.3913043" ry="12.9032258"></ellipse>
                    <path d="M4.13043478,33.8709677 L9.7826087,75.8064516 L90.2173913,75.8064516 L95.8695652,33.8709677 L4.13043478,33.8709677 Z M50,70.9677419 C37.9938098,70.9677419 28.2608696,63.7465282 28.2608696,54.8387097 C28.2608696,45.9308911 37.9938098,38.7096774 50,38.7096774 C62.0061902,38.7096774 71.7391304,45.9308911 71.7391304,54.8387097 C71.7391304,59.116395 69.4487643,63.2188775 65.3718865,66.2436578 C61.2950088,69.2684381 55.7655759,70.9677419 50,70.9677419 Z" id="Shape"></path>
                    <path d="M8.69565217,9.67741935 L91.3043478,9.67741935 C96.1068239,9.67741935 100,12.5659048 100,16.1290323 L100,19.3548387 L0,19.3548387 L0,16.1290323 C0,12.5659048 3.89317609,9.67741935 8.69565217,9.67741935 Z" id="Path"></path>
                    <polygon id="Path" points="87.673913 6.4516129 12.326087 6.4516129 15.2173913 0 84.7826087 0"></polygon>
                </g>
                <g id="Pizza" transform="translate(26.000000, 437.000000)">
                    <path d="M73.4126984,35.5483871 C73.4342831,36.0256762 73.2637605,36.4913347 72.9403769,36.8381897 C72.6169934,37.1850446 72.168606,37.383217 71.6984127,37.3870968 L68.4444444,37.3870968 C67.8747744,23.6960909 60.7332388,11.1595619 49.3333333,3.83870968 C50.9206349,1.03225806 51.0952381,0.338709677 52.0793651,0.112903226 C52.5295011,0.0018202638 53.0049317,0.0960834566 53.3809524,0.370967742 C65.0128818,8.35573248 72.3964769,21.3219423 73.4126984,35.5483871 L73.4126984,35.5483871 Z" id="Path"></path>
                    <path d="M47.7460317,6.5483871 C46.047619,9.53225806 46.8253968,8.32258065 30.2857143,37.3870968 L65.2063492,37.3870968 C64.67656,24.8314425 58.1617166,13.3248153 47.7460317,6.5483871 L47.7460317,6.5483871 Z M48.015873,33.9677419 C44.8687266,33.9677419 42.3174603,31.3753262 42.3174603,28.1774194 C42.3174603,24.9795125 44.8687266,22.3870968 48.015873,22.3870968 C51.1630194,22.3870968 53.7142857,24.9795125 53.7142857,28.1774194 C53.6968217,31.3627215 51.1506634,33.9355333 48.015873,33.9354839 L48.015873,33.9677419 Z M54.5873016,19.7741935 C53.6825397,19.7741935 53.7777778,19.6451613 49.3650794,15.1290323 C48.8257511,14.4890963 48.8620123,13.5351707 49.4483123,12.9394142 C50.0346124,12.3436576 50.9733964,12.3068116 51.6031746,12.8548387 L55.7142857,17.0322581 C56.1392046,17.4974822 56.256099,18.1726861 56.0129383,18.7573323 C55.7697777,19.3419784 55.2117753,19.7273578 54.5873016,19.7419355 L54.5873016,19.7741935 Z" id="Shape"></path>
                    <path d="M41.7619048,10.6451613 L39.952381,13.8709677 C28.033018,7.47897669 13.7765058,7.47897669 1.8571429,13.8709677 L0.2698413,11 C0.0311526,10.5910725 -0.0291779,10.0996178 0.1033359,9.64364009 C0.2358497,9.18766235 0.5492386,8.80834773 0.968254,8.59677419 C13.625658,2.39611166 28.374342,2.39611166 41.031746,8.59677419 C41.7607476,8.98414042 42.0776819,9.87326766 41.7619048,10.6451613 L41.7619048,10.6451613 Z" id="Path"></path>
                    <path d="M3.4126984,16.6290323 L20.9206349,47.3870968 C25.6825397,38.9354839 25.8412698,38.6129032 38.3809524,16.5322581 C27.415501,10.7316272 14.3468921,10.7677944 3.4126984,16.6290323 Z M11.0634921,22.2580645 C10.3223673,22.261173 9.6777677,21.7427284 9.5105623,21.0090595 C9.3433569,20.2753907 9.698055,19.5217972 10.3650794,19.1935484 L16.9206349,15.8548387 C17.7052299,15.4539869 18.6610664,15.7753309 19.0555556,16.5725806 C19.4500447,17.3698304 19.1338014,18.3410836 18.3492063,18.7419355 C11.2857143,22.3387097 11.5079365,22.2580645 11.0634921,22.2580645 Z M21.7460317,32.2580645 C19.439987,32.2840916 17.3458596,30.895188 16.4411358,28.7396591 C15.5364121,26.5841303 15.9994877,24.087009 17.6142107,22.4138889 C19.2289337,20.7407689 21.6769087,20.2215603 23.8154822,21.0986167 C25.9540558,21.9756731 27.3615384,24.0760543 27.3809524,26.4193548 C27.3978756,27.9535621 26.813189,29.4315315 25.7559675,30.5269878 C24.6987461,31.622444 23.2559292,32.2453036 21.7460317,32.2580645 L21.7460317,32.2580645 Z" id="Shape"></path>
                    <path d="M23.6666667,52.2258065 C36.3650794,74.6451613 32.4761905,67.7258065 41.1269841,83.0483871 C51.6088056,76.3262882 58.1806126,64.8088846 58.7142857,52.2258065 L23.6666667,52.2258065 Z M40.6349206,55.6774194 L47.2063492,55.6774194 C48.0829917,55.6774194 48.7936508,56.3995407 48.7936508,57.2903226 C48.7936508,58.1811044 48.0829917,58.9032258 47.2063492,58.9032258 L40.6349206,58.9032258 C39.8951352,58.7505831 39.3634881,58.0896392 39.3634881,57.3225806 C39.3634881,56.5555221 39.8951352,55.8945782 40.6349206,55.7419355 L40.6349206,55.6774194 Z M44.7301587,73.9193548 C41.5830123,73.9193548 39.031746,71.3269391 39.031746,68.1290323 C39.031746,64.9311254 41.5830123,62.3387097 44.7301587,62.3387097 C47.8773052,62.3387097 50.4285714,64.9311254 50.4285714,68.1290323 C50.4455339,69.675869 49.8526637,71.1652889 48.78216,72.2651787 C47.7116563,73.3650686 46.252537,73.983871 44.7301587,73.983871 L44.7301587,73.9193548 Z" id="Shape"></path>
                    <path d="M66.8412698,54.1290323 C65.8274604,68.3605623 58.4438704,81.3327083 46.8095238,89.3225806 C46.4167184,89.5817106 45.9366816,89.6662622 45.4809624,89.5565879 C45.0252432,89.4469135 44.633522,89.1525627 44.3968254,88.7419355 L42.8095238,85.8548387 C54.2320238,78.5224695 61.3681641,65.9444047 61.8888889,52.2258065 C65.1904762,52.2258065 65.7301587,52.0483871 66.3968254,52.7903226 C66.7396639,53.1433827 66.9035733,53.6370934 66.8412698,54.1290323 Z" id="Path"></path>
                    <path d="M50.5396825,28.1451613 C50.4353749,29.47849 49.3401136,30.506458 48.0238095,30.506458 C46.7075055,30.506458 45.6122441,29.47849 45.5079365,28.1451613 C45.6122441,26.8118326 46.7075055,25.7838646 48.0238095,25.7838646 C49.3401136,25.7838646 50.4353749,26.8118326 50.5396825,28.1451613 Z" id="Path"></path>
                </g>
            </g>
            <g id="Ramen" opacity="0.75" transform="translate(435.141595, 66.751836) rotate(40.000000) translate(-435.141595, -66.751836) translate(391.641595, 16.751836)" fill="#1D8348" fill-rule="nonzero">
                <path d="M25.984127,89.6935484 C33.6031746,92.3387097 38.8730159,91.9354839 47.4920635,91.9354839 C62.952381,91.9354839 76.4285714,83.4193548 82.6349206,70.9677419 L4.25396825,70.9677419 C8.818455,79.8491143 16.6156036,86.5682504 25.984127,89.6935484 Z" id="Path"></path>
                <path d="M2.88888889,67.8709677 C3.44444444,67.6451613 83.5555556,67.6774194 84,67.8709677 C84.4290679,66.7753169 84.7947704,65.6551286 85.0952381,64.516129 L1.79365079,64.516129 C2.09411853,65.6551286 2.45982102,66.7753169 2.88888889,67.8709677 L2.88888889,67.8709677 Z" id="Path"></path>
                <path d="M0.587301587,55.5322581 C0.589281418,57.4630729 0.759255325,59.3899293 1.0952381,61.2903226 C1.34920635,61.2903226 85.4444444,61.2903226 85.7936508,61.2903226 C86.1652445,59.1611903 86.3353329,57.0007922 86.3015873,54.8387097 C-6,54.8387097 0.587301587,54.4516129 0.587301587,55.5322581 Z" id="Path"></path>
                <path d="M39.3968254,95.1612903 C34.8491819,95.1625586 30.327382,94.4665519 25.984127,93.0967742 L25.984127,100 L60.9047619,100 L60.9047619,93.0967742 C53.1746032,95.5322581 48.031746,95.1612903 39.3968254,95.1612903 Z" id="Path"></path>
                <path d="M76.2222222,51.1612903 C76.4920635,51.6612903 76.3492063,51.6129032 76.5079365,51.6129032 C74.9206349,44.6612903 63.1111111,39.1612903 53.1746032,43.4516129 C54.0816564,44.2738019 54.8865504,45.2054225 55.5714286,46.2258065 C64.8095238,43.0645161 74.2857143,47.2096774 76.2222222,51.1612903 Z" id="Path"></path>
                <path d="M57.031746,49.1451613 C57.3164225,49.9432331 57.5133863,50.7708419 57.6190476,51.6129032 L72.6190476,51.6129032 C69.2222222,48.3870968 62,47.6451613 57.031746,49.1451613 Z" id="Path"></path>
                <path d="M21.2222222,32.2580645 C26.482077,32.2580645 30.7460317,27.9253363 30.7460317,22.5806452 L30.7460317,1.61290323 C30.7460317,0.722121371 30.0353726,0 29.1587302,0 C28.2820877,0 27.5714286,0.722121371 27.5714286,1.61290323 L27.5714286,3.12903226 L22.8095238,3.22580645 L22.8095238,8.06451613 L27.5714286,8.06451613 L27.5714286,11.2903226 L22.8095238,11.2903226 L22.8095238,16.1290323 L27.5714286,16.2258065 L27.5714286,22.5806452 C27.5714286,26.1437726 24.7287921,29.0322581 21.2222222,29.0322581 C20.3455798,29.0322581 19.6349206,29.7543794 19.6349206,30.6451613 C19.6349206,31.5359431 20.3455798,32.2580645 21.2222222,32.2580645 Z" id="Path"></path>
                <path d="M37.0952381,1.61290323 C37.0952381,0.722121371 36.384579,0 35.5079365,0 C34.631294,0 33.9206349,0.722121371 33.9206349,1.61290323 L33.9206349,39.7096774 C34.9546627,39.365633 36.0171907,39.1173099 37.0952381,38.9677419 L37.0952381,1.61290323 Z" id="Path"></path>
                <path d="M43.4444444,38.9516129 L43.4444444,1.61290323 C43.4444444,0.722121371 42.7337853,0 41.8571429,0 C40.9805004,0 40.2698413,0.722121371 40.2698413,1.61290323 L40.2698413,38.7096774 C41.3324513,38.7110528 42.39352,38.7919165 43.4444444,38.9516129 Z" id="Path"></path>
                <path d="M79.7936508,51.6129032 C80.1746032,51.6129032 78.5079365,41.8548387 67.0952381,38.3064516 C60.8057985,36.2705933 53.9870752,36.7671503 48.047619,39.6935484 C46.8888889,40.2419355 47.2857143,39.6935484 50.1428571,41.3064516 C61.7142857,34.983871 77.5396825,40.8064516 79.7936508,51.6129032 Z" id="Path"></path>
                <path d="M49.7936508,1.61290323 C49.7936508,0.722121371 49.0829917,0 48.2063492,0 C47.3297067,0 46.6190476,0.722121371 46.6190476,1.61290323 L46.6190476,36.8387097 C47.6475304,36.3183202 48.7079257,35.8657709 49.7936508,35.483871 L49.7936508,1.61290323 Z" id="Path"></path>
                <path d="M39.6984127,51.1290323 C39.8095238,51.8064516 38.6825397,51.6129032 47.2222222,51.6129032 C44.8683392,49.7155605 41.9856567,48.6206464 38.984127,48.483871 C39.3059903,49.3399968 39.5452099,50.2258812 39.6984127,51.1290323 Z" id="Path"></path>
                <path d="M40.4126984,45.4032258 C44.2857143,45.8870968 49.5396825,47.9516129 51.047619,51.6129032 L54.4126984,51.6129032 C53.5714286,46.9193548 48.2063492,41.9354839 40.2698413,41.9354839 C38.7914805,41.9276373 37.3185272,42.1174376 35.8888889,42.5 C38.6666667,46.3548387 36.047619,44.7096774 40.4126984,45.4032258 Z" id="Path"></path>
                <path d="M18.1428571,47.483871 C16.5937609,48.3626006 15.4771435,49.859841 15.0634921,51.6129032 L27.3809524,51.6129032 C26.9147859,49.6584681 25.5783814,48.0366937 23.7667921,47.226991 C21.9552028,46.4172883 19.875646,46.5122745 18.1428571,47.483871 L18.1428571,47.483871 Z" id="Path"></path>
                <path d="M6.79365079,51.6129032 L11.8095238,51.6129032 C13.3968254,40.6290323 29.0634921,40.9032258 30.6190476,51.6129032 L36.5555556,51.6129032 C35.6348191,47.6392461 33.6197682,44.0140725 30.7460317,41.1612903 C18.2539683,28.0806452 4.03174603,33.1290323 6.79365079,51.6129032 Z" id="Path"></path>
            </g>
            <path d="M371.380324,438.328093 C331.724074,398.042379 352.474074,368.867776 368.474074,385.121744 C374.724074,391.47095 383.864699,410.328093 391.395949,417.99476 C398.927199,425.661427 417.474074,434.899522 423.755324,441.280474 C439.724074,457.502696 411.083449,478.661427 371.380324,438.328093 Z" id="Path" fill-opacity="0.75" fill="#1D8348" fill-rule="nonzero" transform="translate(388.403386, 421.036048) rotate(40.000000) translate(-388.403386, -421.036048) "></path>
            <path d="M453.330883,455.744423 C451.674633,450.077756 447.784008,448.25236 444.377758,446.363471 C416.252758,430.903153 405.424633,419.934899 390.174633,391.315852 C388.268383,387.744423 386.534008,383.871407 380.940258,382.284106 C384.721508,379.839661 389.940258,379.855534 395.159008,385.157121 C401.409008,391.506328 410.221508,410.680931 417.768383,418.331725 C425.315258,425.982518 444.143383,434.919026 450.424633,441.299979 C455.643383,446.601566 455.659008,451.903153 453.330883,455.744423 Z" id="Path" fill-opacity="0.75" fill="#1D8348" fill-rule="nonzero" transform="translate(417.878448, 418.228426) rotate(40.000000) translate(-417.878448, -418.228426) "></path>
            <path d="M441.659354,442.596021 C432.643729,437.580148 418.706229,430.500782 406.378104,417.992846 C394.049979,405.484909 387.159354,391.373798 382.284354,382.27856 C377.034354,372.596021 362.518729,376.897608 363.190604,387.723005 C373.831229,386.64364 380.878104,399.738878 386.487479,408.849989 C397.424979,426.580148 398.034354,427.151576 415.503104,438.326179 C424.878104,444.310306 437.112479,451.024592 436.284354,461.992846 C446.737479,462.659513 451.378104,448.024592 441.659354,442.596021 Z M437.471854,447.945227 C434.971854,446.596021 434.346854,448.27856 430.268729,445.849989 C428.065604,444.532529 427.018729,441.723005 425.018729,440.421417 C423.456229,439.421417 420.331229,439.43729 417.971854,437.786497 C415.612479,436.135703 414.940604,433.373798 413.128104,431.9611 C411.315604,430.548402 408.549979,430.627767 406.331229,428.675386 C404.112479,426.723005 403.581229,423.786497 402.143729,422.326179 C400.706229,420.865862 397.706229,420.262687 395.893729,418.072211 C394.081229,415.881735 393.940604,412.818243 392.674979,411.167449 C391.409354,409.516656 388.534354,408.596021 386.971854,406.27856 C385.409354,403.9611 385.409354,400.754751 384.393729,399.135703 C383.096854,397.103957 380.315604,395.9611 379.049979,393.80237 C376.643729,389.707132 378.299979,389.040465 376.971854,386.469036 C376.594843,385.696639 376.893671,384.759751 377.644949,384.358746 C378.396226,383.957742 379.32523,384.239258 379.737479,384.992846 C381.643729,388.659513 379.737479,388.786497 381.721854,392.167449 C382.534354,393.516656 385.471854,394.992846 387.018729,397.405544 C388.565604,399.818243 388.315604,402.707132 389.534354,404.453163 C390.753104,406.199195 393.487479,407.024592 395.190604,409.215068 C396.893729,411.405544 397.018729,414.500782 398.315604,415.992846 C399.612479,417.484909 402.565604,418.167449 404.440604,420.072211 C406.315604,421.976973 406.956229,424.992846 408.456229,426.294433 C409.956229,427.596021 412.909354,427.754751 415.128104,429.469036 C417.346854,431.183322 418.253104,434.135703 419.815604,435.215068 C421.378104,436.294433 424.503104,436.373798 426.768729,437.786497 C429.034354,439.199195 430.549979,442.342052 431.909354,443.151576 C435.221854,445.167449 435.362479,443.246814 438.971854,445.167449 C439.74419,445.570705 440.048497,446.533648 439.651542,447.318243 C439.254587,448.102838 438.30669,448.411975 437.534354,448.008719 L437.471854,447.945227 Z" id="Shape" fill-opacity="0.75" fill="#1D8348" fill-rule="nonzero" transform="translate(405.077690, 419.451372) rotate(40.000000) translate(-405.077690, -419.451372) "></path>
            <ellipse id="Oval" fill-opacity="0.75" fill="#1D8348" fill-rule="nonzero" transform="translate(295.137925, 548.168711) rotate(40.000000) translate(-295.137925, -548.168711) " cx="295.137925" cy="548.168711" rx="14.5833333" ry="11.2903226"></ellipse>
            <path d="M332.635769,513.442326 C319.073269,525.700391 278.469102,526.781036 262.219102,513.797165 C261.552436,513.281036 263.885769,513.442326 247.219102,513.442326 L259.719102,573.119746 L265.969102,577.958455 C282.489936,573.700391 311.927436,573.684262 328.469102,577.958455 L334.719102,573.119746 L347.219102,513.442326 L332.635769,513.442326 Z M297.219102,563.442326 C286.863763,563.442326 278.469102,556.943234 278.469102,548.926197 C278.469102,540.909161 286.863763,534.410068 297.219102,534.410068 C307.574441,534.410068 315.969102,540.909161 315.969102,548.926197 C315.969102,556.943234 307.574441,563.442326 297.219102,563.442326 Z" id="Shape" fill-opacity="0.75" fill="#1D8348" fill-rule="nonzero" transform="translate(297.219102, 545.688461) rotate(40.000000) translate(-297.219102, -545.688461) "></path>
            <path d="M334.391057,499.841538 L334.391057,486.938312 L326.057723,486.938312 L326.057723,498.228635 L332.307723,498.228635 C333.458317,498.228635 334.391057,498.950756 334.391057,499.841538 Z" id="Path" fill-opacity="0.75" fill="#1D8348" fill-rule="nonzero" transform="translate(330.224390, 493.389925) rotate(40.000000) translate(-330.224390, -493.389925) "></path>
            <path d="M350.165367,522.278106 L350.165367,544.858751 C350.701474,544.557983 351.216119,544.234928 351.707034,543.891009 C355.290367,517.907138 354.811201,519.616815 355.748701,519.052299 C356.686201,518.487783 356.415367,520.132944 356.415367,512.600686 L348.082034,512.600686 L348.082034,520.665203 C349.232627,520.665203 350.165367,521.387324 350.165367,522.278106 Z" id="Path" fill-opacity="0.75" fill="#1D8348" fill-rule="nonzero" transform="translate(352.266860, 528.729719) rotate(40.000000) translate(-352.266860, -528.729719) "></path>
            <polygon id="Path" fill-opacity="0.75" fill="#1D8348" fill-rule="nonzero" transform="translate(357.502701, 537.176190) rotate(40.000000) translate(-357.502701, -537.176190) " points="360.440201 546.974577 363.002701 528.08748 354.711034 527.377803 352.002701 546.974577"></polygon>
            <path d="M343.308053,538.315761 L343.308053,515.315761 L334.974719,515.315761 L334.974719,540.960922 C337.869317,540.318306 340.663884,539.431257 343.308053,538.315761 L343.308053,538.315761 Z" id="Path" fill-opacity="0.75" fill="#1D8348" fill-rule="nonzero" transform="translate(339.141386, 528.138342) rotate(40.000000) translate(-339.141386, -528.138342) "></path>
            <path d="M335.425394,536.121247 C336.071228,535.976086 335.862894,538.363182 335.862894,507.959956 C335.862894,507.069175 336.795634,506.347053 337.946228,506.347053 L337.946228,499.89544 L329.612894,499.89544 L329.612894,536.750279 C331.563492,536.620962 333.503762,536.410985 335.425394,536.121247 Z" id="Path" fill-opacity="0.75" fill="#1D8348" fill-rule="nonzero" transform="translate(333.779561, 518.322860) rotate(40.000000) translate(-333.779561, -518.322860) "></path>
            <path d="M315.292113,527.009643 C317.978786,527.203618 320.678425,527.268258 323.375446,527.203191 C323.729613,527.203191 323.625446,529.654804 323.625446,504.622546 L315.292113,504.622546 L315.292113,527.009643 Z" id="Path" fill-opacity="0.75" fill="#1D8348" fill-rule="nonzero" transform="translate(319.465924, 515.945755) rotate(40.000000) translate(-319.465924, -515.945755) "></path>
            <path d="M309.071857,519.416839 C309.426024,519.416839 312.051024,520.094259 315.321857,520.545872 L315.321857,496.981355 C315.321857,496.090574 316.254597,495.368452 317.40519,495.368452 L317.40519,493.755549 L309.071857,493.755549 L309.071857,519.416839 Z" id="Path" fill-opacity="0.75" fill="#1D8348" fill-rule="nonzero" transform="translate(313.238523, 507.150710) rotate(40.000000) translate(-313.238523, -507.150710) "></path>
            <path d="M310.177617,514.124514 L310.177617,487.995482 C310.177617,487.1047 311.110357,486.382578 312.26095,486.382578 L314.344284,486.382578 L314.344284,481.543869 L306.01095,481.543869 L306.01095,512.608385 C307.355299,513.184094 308.747206,513.690569 310.177617,514.124514 L310.177617,514.124514 Z" id="Path" fill-opacity="0.75" fill="#1D8348" fill-rule="nonzero" transform="translate(310.177617, 497.834191) rotate(40.000000) translate(-310.177617, -497.834191) "></path>
            <path d="M306.144149,502.564011 C306.644149,502.902721 307.248316,503.289818 307.977483,503.725302 L307.977483,468.225302 L299.644149,468.225302 L299.644149,479.241431 C304.185816,478.870463 302.914983,477.547882 306.144149,502.564011 Z" id="Path" fill-opacity="0.75" fill="#1D8348" fill-rule="nonzero" transform="translate(303.810816, 485.975302) rotate(40.000000) translate(-303.810816, -485.975302) "></path>
            <polygon id="Path" fill-opacity="0.75" fill="#1D8348" fill-rule="nonzero" transform="translate(294.575641, 485.426864) rotate(40.000000) translate(-294.575641, -485.426864) " points="299.877724 494.4188 297.565224 476.434929 289.273557 477.112348 291.461057 494.4188"></polygon>
            <g id="Burrito" opacity="0.75" transform="translate(486.311379, 311.780579) rotate(40.000000) translate(-486.311379, -311.780579) translate(448.811379, 272.780579)" fill="#1D8348" fill-rule="nonzero">
                <path d="M0.69230769,0.221241642 L0.69230769,73.2392375 C13.4502515,73.2781934 25.999931,71.2360646 37.0769231,67.3174603 C2.35897436,51.5873016 2.1025641,22.0793651 37.0769231,6.1428571 C25.9980881,2.227044 13.449639,0.1851154 0.69230769,0.221241642 Z M13.5128205,60.5396825 C13.5128205,61.416325 12.3648327,62.1269841 10.9487179,62.1269841 C9.5326032,62.1269841 8.3846154,61.416325 8.3846154,60.5396825 C8.3846154,59.6630401 9.5326032,58.952381 10.9487179,58.952381 C12.3648327,58.952381 13.5128205,59.6630401 13.5128205,60.5396825 Z M18.6410256,9.7460317 C20.0571404,9.7460317 21.2051282,10.4566909 21.2051282,11.3333333 C21.2051282,12.2099758 20.0571404,12.9206349 18.6410256,12.9206349 C17.2249109,12.9206349 16.0769231,12.2099758 16.0769231,11.3333333 C16.0769231,10.4566909 17.2249109,9.7460317 18.6410256,9.7460317 Z" id="Shape"></path>
                <path d="M9.2051282,76.1428571 C25.6923077,78.6190476 57.7179487,78.6190476 74.2307692,76.1428571 C62.6911881,75.4300513 51.5689291,73.0897322 41.7179487,69.3015873 C31.844393,73.0600947 20.7334326,75.3980364 9.2051282,76.1428571 L9.2051282,76.1428571 Z" id="Path"></path>
            </g>
            <g id="Pancake" opacity="0.75" transform="translate(152.000000, 106.000000) rotate(40.000000) translate(-152.000000, -106.000000) translate(102.000000, 56.000000)" fill="#1D8348" fill-rule="nonzero">
                <rect id="Rectangle" x="41.9354839" y="0" width="16.1290323" height="13.1578947"></rect>
                <path d="M51.6129032,28.9473684 L48.3870968,28.9473684 C48.3870968,27.4939875 49.1092181,26.3157895 50,26.3157895 C50.8907819,26.3157895 51.6129032,27.4939875 51.6129032,28.9473684 Z" id="Path"></path>
                <path d="M91.9354839,28.9473684 L74.1935484,28.9473684 L74.1935484,23.6842105 C74.1935484,20.7774487 75.6377911,18.4210526 77.4193548,18.4210526 L88.7096774,18.4210526 C93.5483871,18.4210526 95.0483871,28.9473684 91.9354839,28.9473684 Z" id="Path"></path>
                <path d="M91.9354839,44.7368421 L74.1935484,44.7368421 L74.1935484,34.2105263 L88.7096774,34.2105263 C93.5483871,34.2105263 95.0483871,44.7368421 91.9354839,44.7368421 Z" id="Path"></path>
                <path d="M64.516129,36.8421053 L64.516129,44.7368422 L48.3870968,44.7368422 L48.3870968,34.2105263 L51.6129032,34.2105263 L51.6129032,36.8421053 C51.6129032,47.3684211 61.2903226,47.3684211 61.2903226,36.8421053 C61.2903226,35.3887243 62.012444,34.2105263 62.9032258,34.2105263 C63.7940077,34.2105263 64.516129,35.3887243 64.516129,36.8421053 Z" id="Path"></path>
                <path d="M38.7096774,42.1052632 L38.7096774,44.7368421 L35.483871,44.7368421 L35.483871,42.1052632 C35.483871,40.6518822 36.2059923,39.4736842 37.0967742,39.4736842 C37.987556,39.4736842 38.7096774,40.6518822 38.7096774,42.1052632 Z" id="Path"></path>
                <path d="M71.8387097,18.4210526 C70.6774194,21.7105263 70.9677419,21.0526316 70.9677419,50 C70.9677419,51.4533809 70.2456206,52.6315789 69.3548387,52.6315789 C68.4640569,52.6315789 67.7419355,51.4533809 67.7419355,50 L67.7419355,36.8421053 C67.7419355,32.4819625 65.5755714,28.9473684 62.9032258,28.9473684 C60.2308802,28.9473684 58.0645161,32.4819625 58.0645161,36.8421053 C58.0645161,38.2954862 57.3423948,39.4736842 56.4516129,39.4736842 C55.560831,39.4736842 54.8387097,38.2954862 54.8387097,36.8421053 L54.8387097,28.9473684 C54.8387097,18.6052632 45.1612903,18.4210526 45.1612903,28.9473684 L45.1612903,47.3684211 C45.1612903,48.821802 44.439169,50 43.5483871,50 C42.6576052,50 41.9354839,48.821802 41.9354839,47.3684211 L41.9354839,42.1052632 C41.9354839,31.7631579 32.2580645,31.5789474 32.2580645,42.1052632 L32.2580645,63.1578947 C32.2580645,64.6112757 31.5359431,65.7894737 30.6451613,65.7894737 C29.7543794,65.7894737 29.0322581,64.6112757 29.0322581,63.1578947 C29.0322581,20.2105263 29.3387097,21.7631579 28.1612903,18.4210526 L71.8387097,18.4210526 Z" id="Path"></path>
                <path d="M25.8064516,23.6842105 L25.8064516,28.9473684 L8.06451613,28.9473684 C5.82258065,28.9473684 6.09677419,23.6842105 7.85483871,20.7368421 C9.61290323,17.7894737 10.7419355,18.4210526 22.5806452,18.4210526 C24.3622089,18.4210526 25.8064516,20.7774487 25.8064516,23.6842105 Z" id="Path"></path>
                <path d="M25.8064516,34.2105263 L25.8064516,44.7368421 L8.06451613,44.7368421 C5.82258065,44.7368421 6.09677419,39.4736842 7.85483871,36.5263158 C9.88709677,33.2894737 10.6774194,34.2105263 25.8064516,34.2105263 Z" id="Path"></path>
                <path d="M25.8064516,50 L25.8064516,60.5263158 L8.06451613,60.5263158 C5.82258065,60.5263158 6.09677419,55.2631579 7.85483871,52.3157895 C9.88709677,49.0789474 10.6774194,50 25.8064516,50 Z" id="Path"></path>
                <path d="M91.9354839,60.5263158 L35.483871,60.5263158 L35.483871,50 L38.983871,50 C39.6652726,53.1603773 41.4950245,55.2748946 43.5483871,55.2748946 C45.6017497,55.2748946 47.4315016,53.1603773 48.1129032,50 L64.516129,50 C64.516129,60.5263158 74.1935484,60.3421053 74.1935484,50 L88.7096774,50 C93.5483871,50 95.0483871,60.5263158 91.9354839,60.5263158 Z" id="Path"></path>
                <path d="M91.9354839,76.3157895 L8.06451613,76.3157895 C5.01612903,76.3157895 6.4516129,65.7894737 11.2903226,65.7894737 L26.0806452,65.7894737 C26.7620467,68.949851 28.5917987,71.0643683 30.6451613,71.0643683 C32.6985239,71.0643683 34.5282758,68.949851 35.2096774,65.7894737 L88.7096774,65.7894737 C93.5483871,65.7894737 95.0483871,76.3157895 91.9354839,76.3157895 Z" id="Path"></path>
                <path d="M100,81.5789474 C97.6403254,92.6598081 91.2218975,100.064374 84.0322581,100 L15.9677419,100 C8.77810247,100.064374 2.35967458,92.6598081 0,81.5789474 L100,81.5789474 Z" id="Path"></path>
            </g>
            <g id="Group-3" transform="translate(139.000000, 97.000000)">
                <g id="Group">
                    <g id="Oval">
                        <g id="path-2-link" fill="#FFFFFF">
                            <ellipse id="path-2" cx="139" cy="143.5" rx="139" ry="143.5"></ellipse>
                        </g>
                        <g id="path-2-link" fill="#000000" fill-rule="nonzero">
                            <ellipse id="path-2" cx="139" cy="143.5" rx="139" ry="143.5"></ellipse>
                        </g>
                        <ellipse stroke="#FFFFFF" stroke-width="29" cx="139" cy="143.5" rx="124.5" ry="129"></ellipse>
                    </g>
                    <g id="Oval" transform="translate(43.000000, 45.000000)">
                        <g id="path-4-link" fill="#FFFFFF">
                            <ellipse id="path-4" cx="96" cy="98" rx="96" ry="98"></ellipse>
                        </g>
                        <g id="path-4-link" fill="#000000" fill-rule="nonzero">
                            <ellipse id="path-4" cx="96" cy="98" rx="96" ry="98"></ellipse>
                        </g>
                        <ellipse stroke="#FFFFFF" stroke-width="29" cx="96" cy="98" rx="81.5" ry="83.5"></ellipse>
                    </g>
                </g>
                <g id="Meal" fill-rule="nonzero">
                    <use fill="#000000" xlink:href="#path-1"></use>
                    <use fill="#1D8348" xlink:href="#path-1"></use>
                </g>
                <g id="Mate" fill-rule="nonzero">
                    <use fill="#000000" xlink:href="#path-2"></use>
                    <use fill="#2ECC71" xlink:href="#path-2"></use>
                </g>
            </g>
        </g>
    </g>
</svg>